<?xml version="1.0" standalone="no"?>
<!DOCTYPE svg PUBLIC "-//W3C//DTD SVG 20010904//EN"
 "http://www.w3.org/TR/2001/REC-SVG-20010904/DTD/svg10.dtd">
<svg version="1.0" xmlns="http://www.w3.org/2000/svg"
 width="600.000000pt" height="600.000000pt" viewBox="0 0 600.000000 600.000000"
 preserveAspectRatio="xMidYMid meet">

<g transform="translate(0.000000,600.000000) scale(0.100000,-0.100000)"
fill="#000000" stroke="none">
<path d="M2795 5814 c-16 -2 -77 -9 -135 -15 -557 -59 -1123 -306 -1552 -677
-539 -465 -874 -1091 -970 -1812 -7 -54 -12 -196 -12 -330 0 -191 4 -261 22
-375 53 -340 147 -627 303 -924 128 -245 290 -468 500 -692 214 -227 591 -481
925 -622 335 -142 653 -211 1024 -224 600 -19 1181 145 1675 475 179 120 278
198 420 333 479 458 777 1057 860 1729 19 158 19 457 0 620 -59 509 -261 1000
-577 1408 -98 127 -348 381 -468 476 -232 185 -573 375 -835 467 -226 79 -502
138 -745 159 -107 9 -366 11 -435 4z m231 -254 c18 0 91 -66 99 -89 4 -14 27
-19 133 -29 305 -27 575 -105 867 -247 248 -121 434 -255 658 -474 415 -405
685 -963 714 -1477 l6 -112 45 -5 c50 -5 87 -29 120 -77 61 -91 -11 -223 -122
-223 l-43 0 -7 -98 c-24 -367 -190 -809 -430 -1144 -139 -194 -318 -384 -486
-517 -318 -252 -702 -437 -1060 -513 -111 -24 -267 -45 -331 -45 -51 0 -57 -2
-63 -24 -8 -34 -64 -85 -107 -98 -73 -21 -159 20 -189 92 -11 27 -17 30 -56
30 -24 0 -94 7 -156 16 -760 104 -1475 616 -1851 1324 -156 293 -241 579 -272
913 -6 56 -10 67 -22 63 -27 -11 -88 13 -121 47 -57 59 -62 137 -12 200 23 29
100 62 129 54 17 -4 19 3 25 87 36 488 221 932 554 1335 415 500 1032 834
1650 894 118 11 124 13 140 39 29 50 117 95 160 82 8 -2 20 -4 28 -4z"/>
<path d="M2785 5233 c-471 -57 -799 -180 -1155 -433 -285 -203 -574 -549 -719
-861 -145 -311 -201 -577 -201 -946 0 -388 60 -650 225 -988 190 -388 514
-742 877 -958 291 -173 626 -288 921 -315 l87 -8 23 33 c42 62 135 90 196 58
28 -14 75 -63 83 -86 5 -14 154 3 318 36 129 26 341 91 352 109 4 6 8 94 8
195 0 170 -1 183 -17 178 -10 -3 -62 -24 -117 -47 -97 -41 -282 -90 -341 -90
-25 0 -37 9 -69 53 -32 44 -96 103 -141 129 -10 6 -12 -7 -8 -56 8 -95 -2
-131 -44 -163 -47 -36 -132 -40 -175 -8 -49 36 -70 119 -49 193 6 21 6 32 0
32 -30 0 -157 -113 -187 -165 -10 -19 -12 -19 -99 -1 -692 141 -1315 782
-1448 1490 -9 45 -16 112 -17 149 l-2 67 -47 0 c-137 0 -191 188 -79 272 14
10 48 21 76 24 l50 6 3 81 c6 202 91 481 212 689 247 428 680 776 1125 903 49
14 118 31 153 38 l65 13 40 -60 c39 -56 122 -126 151 -126 11 0 11 8 4 32 -42
147 59 263 184 214 68 -27 82 -55 82 -163 l0 -91 29 16 c46 27 113 96 136 141
l21 42 47 -6 c86 -12 246 -53 346 -89 54 -20 100 -36 102 -36 2 0 4 15 4 34 0
18 3 48 6 65 l7 31 93 0 94 0 0 -1950 c0 -1072 2 -1950 5 -1950 13 0 156 76
234 125 219 136 484 387 645 610 72 100 176 264 176 278 0 4 -74 7 -165 7
l-165 0 0 -115 0 -115 -144 0 c-78 0 -171 -3 -205 -6 l-61 -7 0 1227 0 1226
205 0 205 0 0 -87 c0 -145 -15 -133 176 -133 90 0 164 2 164 5 0 33 -161 286
-257 405 -367 454 -929 769 -1498 839 -177 22 -172 22 -194 -15 -58 -98 -204
-99 -268 -2 -14 21 -26 37 -27 37 0 -1 -14 -4 -31 -6z"/>
<path d="M2387 4560 c-62 -16 -177 -80 -177 -99 0 -5 13 -11 29 -14 39 -8 108
-63 154 -122 38 -51 287 -533 287 -557 0 -8 -30 -28 -66 -46 -77 -38 -63 -48
-151 98 -169 281 -261 403 -334 441 -79 40 -169 33 -236 -19 -83 -62 -92 -178
-20 -254 17 -19 68 -63 112 -99 68 -55 343 -285 369 -310 5 -4 -14 -37 -44
-73 l-52 -66 -31 22 c-18 12 -117 86 -222 163 -104 78 -218 160 -252 183 -35
24 -69 55 -77 71 -26 49 -40 54 -68 23 -52 -54 -73 -111 -73 -192 1 -115 44
-178 193 -280 34 -24 61 -45 59 -47 -2 -1 -40 13 -84 32 -149 64 -227 67 -315
10 -52 -35 -93 -120 -84 -179 9 -59 42 -106 91 -131 37 -19 61 -20 365 -21
179 -1 335 -2 348 -3 21 -1 22 -5 22 -90 l0 -90 -342 -3 c-378 -3 -388 -5
-441 -67 -54 -65 -59 -152 -12 -222 72 -110 184 -124 373 -49 41 17 77 29 79
26 3 -2 -24 -24 -59 -47 -135 -92 -185 -157 -195 -253 -7 -66 10 -125 50 -178
40 -53 57 -57 79 -20 10 16 48 49 85 73 38 24 109 73 158 109 123 91 352 250
359 250 13 0 97 -122 92 -135 -2 -8 -114 -101 -248 -208 -134 -107 -253 -207
-263 -223 -14 -21 -19 -47 -20 -91 0 -52 4 -67 30 -104 44 -62 105 -92 176
-86 139 12 194 71 419 445 47 78 90 141 97 142 20 0 123 -64 123 -78 0 -20
-209 -425 -262 -508 -53 -81 -114 -138 -171 -157 l-40 -13 50 -37 c87 -64 138
-82 228 -82 97 1 163 28 241 98 116 105 150 196 170 456 7 102 14 189 14 194
0 4 33 7 74 7 l74 0 6 -112 c20 -336 47 -423 169 -540 134 -128 301 -142 464
-36 35 22 61 44 58 48 -3 5 -18 11 -33 15 -44 9 -124 76 -165 138 -37 54 -247
469 -261 514 -6 19 1 28 48 58 30 19 59 35 63 35 4 0 36 -42 71 -93 174 -253
234 -336 275 -375 l44 -43 5 258 c3 142 2 265 -3 274 -4 9 -47 44 -94 78 -47
34 -85 67 -85 72 0 5 19 39 43 74 l44 65 45 -29 45 -29 6 127 c8 145 9 781 2
781 -2 0 -25 -10 -50 -22 -24 -12 -46 -20 -48 -17 -36 51 -77 123 -75 129 3 9
143 117 159 122 4 2 11 130 14 286 6 245 5 282 -8 282 -23 0 -150 -141 -199
-222 -151 -247 -183 -298 -190 -298 -3 0 -31 15 -62 33 -39 22 -56 38 -56 53
0 25 193 415 247 499 46 71 130 149 179 167 19 6 34 15 34 18 0 23 -117 84
-192 100 -191 43 -421 -130 -467 -350 -6 -30 -15 -129 -20 -218 -5 -90 -13
-168 -19 -174 -7 -7 -142 -2 -142 6 -8 150 -33 395 -45 432 -19 65 -83 162
-138 210 -91 79 -230 119 -330 94z m747 -975 c207 -54 402 -252 451 -456 77
-330 -129 -667 -460 -754 -75 -19 -221 -19 -303 0 -110 26 -212 86 -302 179
-73 75 -115 144 -147 241 -22 67 -26 98 -27 190 0 94 4 122 27 190 68 198 238
357 437 409 74 20 250 20 324 1z"/>
<path d="M2843 3309 c-71 -27 -155 -106 -190 -176 -21 -45 -28 -74 -31 -143
-4 -79 -2 -93 23 -149 40 -88 123 -163 211 -191 83 -25 145 -25 225 0 77 24
129 62 181 131 127 170 64 413 -133 515 -74 38 -208 44 -286 13z"/>
<path d="M4621 3713 c-18 -9 -45 -34 -60 -56 l-26 -41 -3 -635 -2 -636 22 -45
c17 -33 35 -51 68 -67 42 -22 55 -23 290 -23 l247 0 36 118 c76 250 91 357 91
662 0 306 -13 402 -90 658 l-25 82 -257 0 c-218 0 -262 -3 -291 -17z m377
-498 c57 -17 125 -84 120 -119 -5 -29 -53 -60 -93 -59 l-35 1 3 -69 2 -68 35
5 c27 4 42 1 63 -16 65 -51 1 -148 -116 -172 -44 -9 -62 -8 -110 7 -179 56
-242 290 -114 423 70 73 150 95 245 67z"/>
</g>
</svg>
